<svg width="500" height="500" viewBox="0 0 500 500" fill="none" xmlns="http://www.w3.org/2000/svg">
<path d="M500 382.4H0V382.65H500V382.4Z" fill="#EBEBEB"/>
<path d="M449.9 398.49H396.83V398.74H449.9V398.49Z" fill="#EBEBEB"/>
<path d="M331.22 395.36H272.56V395.61H331.22V395.36Z" fill="#EBEBEB"/>
<path d="M399.39 393.92H380.2V394.17H399.39V393.92Z" fill="#EBEBEB"/>
<path d="M143.66 390.89H100.47V391.14H143.66V390.89Z" fill="#EBEBEB"/>
<path d="M94.9 390.89H79.46V391.14H94.9V390.89Z" fill="#EBEBEB"/>
<path d="M185.67 395.11H131.47V395.36H185.67V395.11Z" fill="#EBEBEB"/>
<path d="M237 337.8H43.91C42.3973 337.797 40.9475 337.195 39.8788 336.124C38.8102 335.053 38.21 333.603 38.21 332.09V60.66C38.2231 59.156 38.8292 57.718 39.8964 56.6582C40.9637 55.5985 42.4059 55.0026 43.91 55H237C238.514 55 239.967 55.6016 241.038 56.6724C242.108 57.7433 242.71 59.1956 242.71 60.71V332.09C242.71 333.604 242.108 335.057 241.038 336.128C239.967 337.198 238.514 337.8 237 337.8ZM43.91 55.2C42.4636 55.2026 41.0774 55.7791 40.0556 56.8027C39.0338 57.8264 38.46 59.2136 38.46 60.66V332.09C38.46 333.536 39.0338 334.924 40.0556 335.947C41.0774 336.971 42.4636 337.547 43.91 337.55H237C238.447 337.547 239.834 336.971 240.858 335.948C241.881 334.924 242.457 333.537 242.46 332.09V60.66C242.457 59.2127 241.881 57.8255 240.858 56.8021C239.834 55.7787 238.447 55.2026 237 55.2H43.91Z" fill="#EBEBEB"/>
<path d="M453.31 337.8H260.21C258.696 337.797 257.246 337.195 256.175 336.125C255.105 335.054 254.503 333.604 254.5 332.09V60.66C254.516 59.1551 255.124 57.7171 256.193 56.6576C257.262 55.5981 258.705 55.0025 260.21 55H453.31C454.812 55.0052 456.252 55.6022 457.317 56.6617C458.382 57.7212 458.987 59.1578 459 60.66V332.09C459 333.601 458.401 335.05 457.335 336.121C456.268 337.191 454.821 337.795 453.31 337.8ZM260.21 55.2C258.763 55.2026 257.375 55.7787 256.352 56.8021C255.329 57.8255 254.753 59.2127 254.75 60.66V332.09C254.753 333.537 255.329 334.924 256.352 335.948C257.375 336.971 258.763 337.547 260.21 337.55H453.31C454.757 337.547 456.145 336.971 457.168 335.948C458.191 334.924 458.767 333.537 458.77 332.09V60.66C458.767 59.2127 458.191 57.8255 457.168 56.8021C456.145 55.7787 454.757 55.2026 453.31 55.2H260.21Z" fill="#EBEBEB"/>
<path d="M94.4999 209.2H191.67L191.67 84.73L94.4999 84.73L94.4999 209.2Z" fill="#E6E6E6"/>
<path d="M89.2699 209.2H190.68L190.68 84.73L89.2699 84.73L89.2699 209.2Z" fill="#F0F0F0"/>
<path d="M185.99 204.53V89.4199H93.94V204.53H185.99Z" fill="white"/>
<path d="M141.28 204.52L122.78 89.4099H107.39L125.88 204.52H141.28Z" fill="#F5F5F5"/>
<path d="M154.17 204.52L135.68 89.4099H128.94L147.44 204.52H154.17Z" fill="#F5F5F5"/>
<path d="M94.52 204.53V89.4199H93.95V204.53H94.52Z" fill="#E6E6E6"/>
<path d="M280.3 216.65L435.92 216.65V84.1899L280.3 84.1899V216.65Z" fill="#E6E6E6"/>
<path d="M275.22 216.65L433.55 216.65V84.1899L275.22 84.1899V216.65Z" fill="#F0F0F0"/>
<path d="M280.3 226.08L435.92 226.08V216.64L280.3 216.64V226.08Z" fill="#E6E6E6"/>
<path d="M266.75 226.08L425.08 226.08V216.64L266.75 216.64V226.08Z" fill="#F0F0F0"/>
<path d="M426.43 209.54V91.3L282.32 91.3V209.54H426.43Z" fill="#FAFAFA"/>
<path d="M334.69 209.53L323.3 91.3H303.6L314.99 209.53H334.69Z" fill="white"/>
<path d="M423.14 169.45C423.283 169.45 423.421 169.393 423.522 169.292C423.623 169.191 423.68 169.053 423.68 168.91V95.9101C423.68 95.7669 423.623 95.6295 423.522 95.5283C423.421 95.427 423.283 95.3701 423.14 95.3701C422.997 95.3701 422.86 95.427 422.758 95.5283C422.657 95.6295 422.6 95.7669 422.6 95.9101V168.91C422.6 169.053 422.657 169.191 422.758 169.292C422.86 169.393 422.997 169.45 423.14 169.45Z" fill="#F0F0F0"/>
<path d="M310.76 209.53L299.37 91.3H291.69L303.08 209.53H310.76Z" fill="white"/>
<path d="M283.23 209.54V91.3H282.33V209.54H283.23Z" fill="#E6E6E6"/>
<path opacity="0.5" d="M273.53 104.19H429.15L429.81 94.0601H274.19L273.53 104.19Z" fill="#E0E0E0"/>
<path opacity="0.5" d="M273.53 120.84H429.15L429.81 110.71H274.19L273.53 120.84Z" fill="#E0E0E0"/>
<path opacity="0.5" d="M273.53 137.49H429.15L429.81 127.36H274.19L273.53 137.49Z" fill="#E0E0E0"/>
<path opacity="0.5" d="M273.53 154.14H429.15L429.81 144.01H274.19L273.53 154.14Z" fill="#E0E0E0"/>
<path opacity="0.5" d="M273.53 170.79H429.15L429.81 160.66H274.19L273.53 170.79Z" fill="#E0E0E0"/>
<path opacity="0.5" d="M273.53 187.44H429.15L429.81 177.31H274.19L273.53 187.44Z" fill="#E0E0E0"/>
<path d="M338.56 318.05C338.516 317.836 338.399 317.645 338.229 317.508C338.06 317.371 337.848 317.298 337.63 317.3H301.63C301.412 317.298 301.2 317.371 301.03 317.508C300.861 317.645 300.744 317.836 300.7 318.05L287.92 382.4H289.86L302.4 319.19H336.86L349.4 382.4H351.33L338.56 318.05Z" fill="#F0F0F0"/>
<path d="M408.29 318.05C408.246 317.836 408.129 317.645 407.96 317.508C407.79 317.371 407.578 317.298 407.36 317.3H371.36C371.142 317.298 370.93 317.371 370.761 317.508C370.591 317.645 370.474 317.836 370.43 318.05L357.64 382.4H359.58L372.12 319.19H406.58L419.12 382.4H421.06L408.29 318.05Z" fill="#F0F0F0"/>
<path d="M409.31 310.1H296.05C290.64 310.1 286.25 312.7 286.25 315.92V316.12C286.25 317.29 287.85 318.24 289.83 318.24H415.54C417.54 318.24 419.11 317.29 419.11 316.12V315.92C419.11 312.7 414.72 310.1 409.31 310.1Z" fill="#E0E0E0"/>
<path d="M416.25 263.43H341.36L330.5 307.65H405.39L416.25 263.43Z" fill="#E6E6E6"/>
<path d="M405.39 307.65L405.09 310.1H330.2L330.5 307.65H405.39Z" fill="#E6E6E6"/>
<path d="M413.94 263.43H339.05L328.2 307.65H403.09L413.94 263.43Z" fill="#F0F0F0"/>
<path d="M401.5 305.63L411.37 265.45H340.64L330.77 305.63H401.5Z" fill="white"/>
<path d="M383.57 307.65L383.27 310.1H300.8L301.1 307.65H383.57Z" fill="#F0F0F0"/>
<path d="M227.97 316.78H202.26V322.48H227.97V316.78Z" fill="#E6E6E6"/>
<path d="M75.74 382.4H80.49L80.49 251.33H75.74L75.74 382.4Z" fill="#E6E6E6"/>
<path d="M59.3 322.48H202.26V316.78H59.3V322.48Z" fill="#F5F5F5"/>
<path d="M227.97 347.95H202.26V353.65H227.97V347.95Z" fill="#E6E6E6"/>
<path d="M59.3 353.64H202.26V347.94H59.3V353.64Z" fill="#F5F5F5"/>
<path d="M227.97 254.45H202.26V260.15H227.97V254.45Z" fill="#E6E6E6"/>
<path d="M59.3 260.14H202.26V254.44L59.3 254.44V260.14Z" fill="#F5F5F5"/>
<path d="M227.97 285.61H202.26V291.31H227.97V285.61Z" fill="#E6E6E6"/>
<path d="M59.3 291.31H202.26V285.61H59.3V291.31Z" fill="#F5F5F5"/>
<path d="M218.7 382.4H223.45L223.45 251.33H218.7L218.7 382.4Z" fill="#E6E6E6"/>
<path d="M197.51 382.4H202.26L202.26 251.33H197.51L197.51 382.4Z" fill="#F5F5F5"/>
<path d="M59.29 382.4H64.04L64.04 251.33H59.29L59.29 382.4Z" fill="#F5F5F5"/>
<path d="M250 427.56C357.083 427.56 443.89 422.492 443.89 416.24C443.89 409.988 357.083 404.92 250 404.92C142.918 404.92 56.1101 409.988 56.1101 416.24C56.1101 422.492 142.918 427.56 250 427.56Z" fill="#F5F5F5"/>
<path d="M139.494 176.791L137.482 193.491L138.475 193.61L140.487 176.911L139.494 176.791Z" fill="#48B6B5"/>
<path d="M136.743 199.629L135.992 205.854L136.985 205.974L137.736 199.749L136.743 199.629Z" fill="#48B6B5"/>
<path d="M324.82 346.89L137.35 324.27C134.181 323.877 131.296 322.246 129.325 319.734C127.354 317.222 126.457 314.031 126.83 310.86L150.74 112.75C151.133 109.581 152.764 106.696 155.276 104.725C157.788 102.754 160.979 101.857 164.15 102.23L351.62 124.86C354.79 125.25 357.677 126.88 359.648 129.393C361.62 131.906 362.516 135.098 362.14 138.27L338.23 336.37C337.84 339.54 336.21 342.427 333.697 344.398C331.184 346.37 327.992 347.266 324.82 346.89Z" fill="#48B6B5"/>
<path opacity="0.3" d="M191.348 130.267C195.978 124.686 195.208 116.409 189.627 111.779C184.046 107.149 175.768 107.919 171.138 113.5C166.508 119.081 167.279 127.359 172.86 131.989C178.441 136.619 186.718 135.848 191.348 130.267Z" fill="black"/>
<path opacity="0.3" d="M330.35 153.01C337.601 153.01 343.48 147.132 343.48 139.88C343.48 132.629 337.601 126.75 330.35 126.75C323.098 126.75 317.22 132.629 317.22 139.88C317.22 147.132 323.098 153.01 330.35 153.01Z" fill="black"/>
<path d="M353.616 173.296L334.001 335.867C333.754 337.916 332.703 339.782 331.079 341.056C329.456 342.329 327.393 342.906 325.345 342.659L137.875 320.039C135.826 319.792 133.96 318.741 132.686 317.118C131.412 315.494 130.835 313.432 131.083 311.383L150.698 148.812L353.616 173.296Z" fill="white"/>
<path d="M180.9 124.74C178.621 124.46 176.546 123.288 175.129 121.481C173.712 119.675 173.069 117.38 173.34 115.1L175.7 95.53C175.99 93.2577 177.165 91.1918 178.971 89.7816C180.776 88.3715 183.065 87.7312 185.34 88C187.618 88.2827 189.691 89.4551 191.108 91.2613C192.524 93.0674 193.168 95.3605 192.9 97.64L190.54 117.2C190.25 119.473 189.075 121.54 187.27 122.952C185.465 124.363 183.176 125.006 180.9 124.74Z" fill="#263238"/>
<path d="M330 142.73C327.722 142.447 325.649 141.275 324.232 139.469C322.816 137.663 322.172 135.37 322.44 133.09L324.8 113.53C325.083 111.252 326.255 109.179 328.061 107.762C329.867 106.346 332.16 105.702 334.44 105.97C336.719 106.25 338.794 107.422 340.211 109.229C341.628 111.035 342.271 113.33 342 115.61L339.64 135.17C339.357 137.448 338.185 139.521 336.379 140.938C334.573 142.354 332.28 142.998 330 142.73Z" fill="#263238"/>
<path d="M228.91 310.28C220.404 310.291 211.937 309.127 203.75 306.82C193.17 303.82 185.48 299.41 180.26 293.31C167.2 278.04 169.37 249.65 176.91 229.72C184.69 209.15 200 193.4 219 186.51C233.23 181.34 249.51 180.12 267.39 182.88C286.67 185.88 302.21 192.75 313.58 203.38C313.799 203.585 313.975 203.831 314.099 204.104C314.222 204.377 314.291 204.671 314.301 204.971C314.31 205.27 314.261 205.569 314.155 205.849C314.05 206.13 313.89 206.386 313.685 206.605C313.48 206.824 313.234 207 312.961 207.124C312.688 207.247 312.394 207.316 312.094 207.326C311.795 207.335 311.496 207.286 311.216 207.18C310.936 207.075 310.679 206.915 310.46 206.71C299.78 196.71 285.05 190.22 266.69 187.39C249.58 184.75 234.06 185.89 220.56 190.79C202.84 197.23 188.49 212 181.17 231.34C175.26 246.95 171.06 275.55 183.72 290.34C188.34 295.74 195.3 299.69 204.99 302.43C221.372 306.961 238.698 306.794 254.99 301.95C271.36 297.17 286.82 287.95 296.33 277.26C303.33 269.45 307.2 260.1 307.33 250.95C307.46 242.44 303.15 232.88 296.1 226.01C290.1 220.16 283.1 217.09 276.41 217.37C276.111 217.383 275.812 217.336 275.53 217.233C275.249 217.13 274.991 216.972 274.77 216.769C274.325 216.36 274.06 215.79 274.035 215.185C274.01 214.58 274.226 213.99 274.636 213.545C275.046 213.1 275.615 212.835 276.22 212.81C284.22 212.49 292.37 216.01 299.28 222.74C307.28 230.58 312.03 241.15 311.89 251.01C311.74 261.26 307.42 271.66 299.73 280.29C289.67 291.59 273.43 301.29 256.27 306.29C247.385 308.908 238.173 310.252 228.91 310.28Z" fill="#48B6B5"/>
<path opacity="0.1" d="M322.2 160.29L317.11 155.85L313.2 161.24L313.49 169.16L308.83 173C306.97 174.56 305.12 176.11 303.25 177.64C301.38 179.17 299.54 180.71 297.68 182.19C296.75 182.95 295.82 183.67 294.89 184.38C293.96 185.09 293.02 185.76 292.2 186.29L291.6 186.65L290.86 187.03C290.36 187.27 289.86 187.55 289.36 187.77C288.36 188.24 287.29 188.71 286.22 189.14C284.09 189.99 281.91 190.79 279.69 191.51C277.82 192.13 275.93 192.68 274.02 193.21L273.73 188.08C270.118 188.912 266.607 190.136 263.26 191.73C262.45 191.57 261.6 191.42 260.72 191.28C260.533 191.072 260.277 190.937 260 190.9C259.57 190.84 259.17 190.8 258.89 190.78C258.671 190.765 258.452 190.814 258.26 190.92L257.14 190.79C256.269 189.728 255.714 188.442 255.54 187.08C257.905 188.128 260.497 188.561 263.075 188.337C265.652 188.113 268.131 187.24 270.28 185.8C272.002 185.482 273.605 184.702 274.917 183.543C276.23 182.384 277.202 180.889 277.73 179.22C278.331 177.501 278.567 175.676 278.422 173.861C278.278 172.046 277.756 170.282 276.89 168.68C278.094 166.599 278.721 164.234 278.706 161.83C278.69 159.425 278.034 157.068 276.804 155.003C275.574 152.937 273.814 151.237 271.708 150.078C269.601 148.919 267.223 148.343 264.82 148.41C264.253 148.422 263.689 148.476 263.13 148.57C261.527 146.592 259.25 145.276 256.736 144.876C254.221 144.475 251.648 145.018 249.51 146.4C249.62 146.27 249.71 146.15 249.82 146.03C251.82 143.83 254.99 142.82 258.66 143.2C258.691 143.203 258.723 143.199 258.753 143.189C258.784 143.18 258.811 143.164 258.836 143.144C258.86 143.124 258.88 143.099 258.894 143.07C258.909 143.042 258.917 143.011 258.92 142.98C258.923 142.948 258.919 142.917 258.909 142.886C258.9 142.856 258.884 142.828 258.864 142.804C258.844 142.78 258.819 142.76 258.79 142.746C258.762 142.731 258.731 142.722 258.7 142.72C254.88 142.33 251.6 143.39 249.46 145.72C249.081 146.156 248.746 146.628 248.46 147.13C248.21 147.13 247.96 147.13 247.7 147.13C243.947 147.232 240.389 148.82 237.807 151.544C235.225 154.269 233.83 157.907 233.93 161.66C233.974 163.378 234.337 165.074 235 166.66C233.748 168.625 233.118 170.921 233.19 173.25C233.23 174.794 233.574 176.316 234.203 177.727C234.831 179.139 235.731 180.413 236.852 181.476C237.973 182.539 239.293 183.371 240.735 183.924C242.178 184.478 243.715 184.741 245.26 184.7C246.054 184.677 246.845 184.577 247.62 184.4C247.57 186.97 246.48 189.2 242.69 189.9L242.79 189.55L240.79 188.66C240.688 188.73 240.592 188.807 240.5 188.89C237.962 185.754 235.069 182.921 231.88 180.45L230.94 182.2C229.029 178.009 227.379 173.704 226 169.31C225.83 168.76 225.62 168.06 225.59 167.89C225.56 167.72 225.59 167.54 225.51 167.36V166.73C225.528 165.719 225.656 164.713 225.89 163.73C226.433 161.471 227.158 159.261 228.06 157.12C228.95 154.89 229.96 152.66 231.06 150.47C232.16 148.28 233.22 146.23 234.34 144.18C234.765 144.032 235.172 143.834 235.55 143.59L241 139.94L243.73 134.71L237.73 131.62L233.36 137.37C233.36 137.37 230.56 139.94 230.36 142.71C227.404 146.404 224.77 150.345 222.49 154.49C221.189 156.867 220.114 159.361 219.28 161.94C218.817 163.372 218.512 164.851 218.37 166.35C218.37 166.77 218.37 167.18 218.37 167.61C218.376 168.058 218.406 168.505 218.46 168.95C218.572 169.704 218.726 170.452 218.92 171.19C220.129 176.254 221.761 181.209 223.8 186C224.52 187.72 225.27 189.4 226.05 191.07L222.85 197.07C222.85 197.07 225.07 204.91 227.66 208.79C227.86 215.39 228.44 224.45 229.66 236.9H229.56C229.24 236.9 228.98 237.03 228.99 237.23L229.1 240.12C229.1 240.31 229.34 240.46 229.63 240.48C228.44 248.39 222.73 287.28 221.84 308.91C220.97 330.26 239.78 362.66 245.46 371.91L244.18 372.5L246.58 375.84L248.86 374.89L253.25 382.59L252.45 383.23C252.328 383.328 252.221 383.443 252.13 383.57C251.519 382.996 250.748 382.623 249.92 382.5C249.735 382.493 249.55 382.525 249.378 382.594C249.205 382.663 249.049 382.767 248.92 382.9C248.54 383.26 248.59 383.56 248.7 383.75C248.95 384.2 249.88 384.44 250.82 384.53C249.74 384.85 248.54 385.33 248.3 385.9C248.255 385.994 248.237 386.099 248.247 386.203C248.258 386.307 248.297 386.406 248.36 386.49C248.448 386.634 248.569 386.754 248.714 386.841C248.858 386.928 249.022 386.979 249.19 386.99C249.869 386.93 250.507 386.641 251 386.17L251.3 385.91C249.741 389.669 247.583 393.151 244.91 396.22C244.01 397.32 246.26 399.73 248.8 397.7C251.34 395.67 256.65 391.1 258.53 389.59C261.59 387.15 262.87 386.35 265.33 384.46C265.47 384.348 265.585 384.207 265.667 384.048C265.75 383.889 265.798 383.714 265.808 383.534C265.818 383.355 265.791 383.176 265.728 383.008C265.664 382.84 265.566 382.687 265.44 382.56L260.24 377.69C260.143 377.601 260.019 377.545 259.888 377.53C259.757 377.516 259.624 377.544 259.51 377.61L256.91 373.09L256.18 371.83L258.18 370.99L256.98 366.61L255.7 367.2C252.7 358.01 239.4 317.79 241.45 306.8C241.55 306.26 241.66 305.71 241.76 305.16C242.56 300.86 243.41 296.24 244.27 291.53C245.256 296.406 246.593 301.206 248.27 305.89C251.46 314.49 288.94 330.52 298.89 334.65L297.94 336.32L302.11 337.2L303.11 335.51L310.11 338.51L309.81 339.28C309.753 339.421 309.716 339.569 309.7 339.72C308.826 339.625 307.944 339.773 307.15 340.15C306.809 340.343 306.557 340.663 306.45 341.04C306.31 341.54 306.51 341.74 306.71 341.83C307.531 341.903 308.351 341.687 309.03 341.22C308.23 342.08 307.4 343.14 307.49 343.72C307.504 343.818 307.546 343.911 307.612 343.985C307.678 344.06 307.764 344.114 307.86 344.14C308.023 344.197 308.197 344.219 308.37 344.203C308.542 344.188 308.709 344.136 308.86 344.05C309.424 343.638 309.841 343.056 310.05 342.39C310.1 342.27 310.14 342.14 310.18 342.02C310.75 344.58 310.75 348.56 309.93 353.64C309.71 355.01 313.01 355.59 314.21 352.57C315.41 349.55 317.75 342.98 318.64 340.74C320.08 337.1 320.81 335.74 322.01 332.88C322.076 332.72 322.104 332.547 322.092 332.375C322.08 332.202 322.027 332.035 321.939 331.886C321.85 331.738 321.729 331.612 321.583 331.519C321.437 331.426 321.272 331.368 321.1 331.35L313.84 330.54C313.679 330.525 313.518 330.561 313.38 330.644C313.241 330.727 313.133 330.851 313.07 331L312.98 331.23L308.57 329.33L307.23 328.75L308.63 326.49L305.11 323.58L304.54 324.58C296.63 318.58 277.05 304.34 270.17 299.53C268.17 298.16 266.53 296.47 266.25 294.1C263.63 271.79 262.5 248.42 262.25 242.48H262.59C262.96 242.48 263.24 242.29 263.14 242.06L262.5 239.13C262.447 239.044 262.371 238.973 262.282 238.926C262.192 238.878 262.091 238.855 261.99 238.86C262.092 230.601 263.101 222.378 265 214.34C268.491 212.869 271.839 211.078 275 208.99L274.58 201.56L275.21 201.39C277.61 200.7 279.99 199.91 282.37 199.07C284.75 198.23 287.08 197.26 289.37 196.18L291.11 195.35L292.82 194.44C293.4 194.15 293.96 193.78 294.52 193.44L295.37 192.94L296.3 192.3C297.373 191.518 298.404 190.68 299.39 189.79C300.33 188.95 301.26 188.11 302.15 187.26C303.96 185.56 305.69 183.82 307.4 182.06C309.11 180.3 310.77 178.52 312.4 176.73C314.03 174.94 315.68 173.11 317.26 171.23C318.449 169.791 319.245 168.068 319.57 166.23L322.2 160.29ZM249 383.57C249 383.57 248.91 383.41 249.16 383.16L249.24 383.09C249.428 382.943 249.662 382.869 249.9 382.88C250.652 383.003 251.35 383.352 251.9 383.88C251.851 383.981 251.807 384.084 251.77 384.19C250.7 384.23 249.26 384 249 383.57ZM249.2 386.62C249.087 386.613 248.978 386.579 248.882 386.519C248.786 386.46 248.706 386.378 248.65 386.28C248.631 386.245 248.621 386.205 248.621 386.165C248.621 386.125 248.631 386.085 248.65 386.05C248.707 385.942 248.785 385.847 248.88 385.77C249.744 385.257 250.687 384.889 251.67 384.68C251.67 384.84 251.59 385.01 251.54 385.18C250.58 386.12 249.75 386.65 249.22 386.62H249.2ZM307 341.54C307 341.54 306.84 341.46 306.93 341.14V341.03C307.026 340.802 307.195 340.612 307.41 340.49C308.145 340.154 308.957 340.026 309.76 340.12C309.75 340.223 309.75 340.327 309.76 340.43C308.83 341.1 307.41 341.73 307 341.54ZM308.8 343.79C308.695 343.84 308.581 343.865 308.465 343.865C308.349 343.865 308.235 343.84 308.13 343.79C308.09 343.781 308.054 343.76 308.027 343.73C308 343.699 307.983 343.661 307.98 343.62C307.974 343.503 307.995 343.387 308.04 343.28C308.556 342.373 309.206 341.551 309.97 340.84L310.12 341.31C309.974 342.269 309.497 343.147 308.77 343.79H308.8ZM277.3 179.06C276.854 180.468 276.076 181.748 275.032 182.792C273.988 183.836 272.708 184.614 271.3 185.06C273.189 183.574 274.705 181.668 275.726 179.492C276.747 177.317 277.245 174.932 277.18 172.53C277.152 171.557 277.032 170.59 276.82 169.64C278.174 172.605 278.336 175.979 277.27 179.06H277.3Z" fill="black"/>
<path d="M215.47 190.63C212.922 185.917 210.684 181.044 208.77 176.04C206.785 171.023 205.223 165.848 204.1 160.57C203.917 159.802 203.78 159.024 203.69 158.24C203.645 157.778 203.625 157.314 203.63 156.85C203.63 156.41 203.68 155.99 203.71 155.56C203.879 154.018 204.214 152.499 204.71 151.03C205.647 148.389 206.829 145.841 208.24 143.42C210.943 138.806 214.07 134.454 217.58 130.42L220.91 132.89C219.65 135.06 218.38 137.31 217.21 139.55C216.04 141.79 215 144 214 146.29C213.014 148.474 212.208 150.735 211.59 153.05C211.318 154.063 211.154 155.102 211.1 156.15V156.8C211.1 156.98 211.1 157.19 211.17 157.35C211.24 157.51 211.39 158.25 211.55 158.83C212.889 163.651 214.529 168.384 216.46 173C217.46 175.32 218.46 177.62 219.53 179.92C220.6 182.22 221.73 184.51 222.82 186.66L215.47 190.63Z" fill="#FFB573"/>
<path d="M229.15 187.79C229.74 180.44 217.15 170.44 217.15 170.44L207.45 187.39C207.45 187.39 209.94 197.2 212.84 200.68C215.74 204.16 228.74 192.85 229.15 187.79Z" fill="#48B6B5"/>
<g opacity="0.4">
<path opacity="0.4" d="M229.15 187.79C229.74 180.44 217.15 170.44 217.15 170.44L207.45 187.39C207.45 187.39 209.94 197.2 212.84 200.68C215.74 204.16 228.74 192.85 229.15 187.79Z" fill="white"/>
</g>
<path d="M222.09 132.52L227.82 128.91L220 126C220 126 216 129.45 216.79 132.77L217.56 133.03C218.305 133.288 219.099 133.376 219.883 133.288C220.667 133.2 221.421 132.937 222.09 132.52Z" fill="#FFB573"/>
<path d="M230.78 123.59L224.66 120.22L220 126.04L227.82 128.91L230.78 123.59Z" fill="#FFB573"/>
<path d="M242.2 378.19L234.52 381.16L226.28 365.73L233.17 361.47L242.2 378.19Z" fill="#FFB573"/>
<path d="M233 380.43L240.33 374.88C240.455 374.782 240.611 374.733 240.77 374.742C240.928 374.751 241.078 374.818 241.19 374.93L246.42 380.1C246.547 380.234 246.644 380.394 246.705 380.569C246.766 380.743 246.789 380.929 246.773 381.113C246.757 381.297 246.702 381.476 246.612 381.638C246.522 381.799 246.398 381.94 246.25 382.05C243.66 383.94 242.32 384.73 239.1 387.17C237.1 388.67 231.57 393.17 228.83 395.27C226.09 397.37 223.89 394.75 224.83 393.64C229.11 388.64 231.57 384.41 232.19 381.64C232.316 381.157 232.602 380.731 233 380.43Z" fill="#263238"/>
<g opacity="0.2">
<path opacity="0.2" d="M226.28 365.73L230.3 373.26L237.83 370.09L233.18 361.47L226.28 365.73Z" fill="black"/>
</g>
<path d="M264.075 166.11C265.488 157.404 259.576 149.201 250.87 147.788C242.164 146.374 233.961 152.286 232.548 160.992C231.134 169.698 237.046 177.902 245.752 179.315C254.458 180.728 262.662 174.816 264.075 166.11Z" fill="#263238"/>
<path d="M256.58 177.1C256.514 177.1 256.45 177.074 256.403 177.027C256.356 176.98 256.33 176.916 256.33 176.85C256.33 176.784 256.356 176.72 256.403 176.673C256.45 176.626 256.514 176.6 256.58 176.6C258.31 176.359 259.94 175.642 261.287 174.53C262.634 173.417 263.646 171.953 264.21 170.3C265.73 166.3 265.21 161.42 262.88 158.64C262.834 158.593 262.809 158.53 262.809 158.465C262.809 158.399 262.834 158.337 262.88 158.29C262.929 158.243 262.993 158.218 263.06 158.218C263.127 158.218 263.192 158.243 263.24 158.29C265.64 161.2 266.24 166.29 264.65 170.45C264.05 172.18 262.987 173.712 261.577 174.88C260.166 176.047 258.462 176.805 256.65 177.07L256.58 177.1Z" fill="#263238"/>
<path d="M214.06 181.37C214.06 181.37 210.06 182.37 213.57 230.94L246.69 233.89C247.33 220.36 247.96 212.03 256.87 184.94C252.352 183.574 247.739 182.541 243.07 181.85C238.108 181.05 233.095 180.603 228.07 180.51C221.52 180.53 214.06 181.37 214.06 181.37Z" fill="#48B6B5"/>
<g opacity="0.4">
<path opacity="0.4" d="M214.06 181.37C214.06 181.37 210.06 182.37 213.57 230.94L246.69 233.89C247.33 220.36 247.96 212.03 256.87 184.94C252.352 183.574 247.739 182.541 243.07 181.85C238.108 181.05 233.095 180.603 228.07 180.51C221.52 180.53 214.06 181.37 214.06 181.37Z" fill="white"/>
</g>
<path d="M252.16 166.25C259.875 166.25 266.13 159.995 266.13 152.28C266.13 144.565 259.875 138.31 252.16 138.31C244.445 138.31 238.19 144.565 238.19 152.28C238.19 159.995 244.445 166.25 252.16 166.25Z" fill="#263238"/>
<path d="M241.94 155.68C247.855 155.68 252.65 150.885 252.65 144.97C252.65 139.055 247.855 134.26 241.94 134.26C236.025 134.26 231.23 139.055 231.23 144.97C231.23 150.885 236.025 155.68 241.94 155.68Z" fill="#263238"/>
<path d="M234.19 143.21C234.129 143.21 234.069 143.188 234.023 143.148C233.977 143.107 233.947 143.051 233.94 142.99C233.7 141.575 233.795 140.123 234.217 138.751C234.639 137.379 235.376 136.125 236.37 135.09C238.64 132.76 242.06 131.75 246 132.26C246.033 132.264 246.065 132.274 246.094 132.29C246.123 132.306 246.148 132.328 246.169 132.354C246.189 132.38 246.204 132.41 246.213 132.442C246.222 132.474 246.224 132.507 246.22 132.54C246.21 132.605 246.176 132.665 246.124 132.705C246.071 132.746 246.006 132.766 245.94 132.76C242.16 132.27 238.89 133.22 236.73 135.44C235.79 136.421 235.093 137.609 234.694 138.907C234.294 140.206 234.204 141.58 234.43 142.92C234.439 142.985 234.421 143.05 234.382 143.103C234.343 143.155 234.285 143.19 234.22 143.2L234.19 143.21Z" fill="#263238"/>
<path d="M230.92 175.2C237.63 175.2 243.07 169.76 243.07 163.05C243.07 156.34 237.63 150.9 230.92 150.9C224.21 150.9 218.77 156.34 218.77 163.05C218.77 169.76 224.21 175.2 230.92 175.2Z" fill="#263238"/>
<path d="M234.48 165.71C242.554 165.71 249.1 159.164 249.1 151.09C249.1 143.016 242.554 136.47 234.48 136.47C226.405 136.47 219.86 143.016 219.86 151.09C219.86 159.164 226.405 165.71 234.48 165.71Z" fill="#263238"/>
<path d="M243.09 164.79C241.71 169.54 239.97 178.32 243.09 181.85C243.09 181.85 241.33 186.64 232.34 185.85C222.45 184.97 228.05 180.52 228.05 180.52C233.56 179.71 233.78 175.7 233.17 171.86L243.09 164.79Z" fill="#FFB573"/>
<path opacity="0.2" d="M239 167.67L233.12 171.84C233.275 172.735 233.352 173.642 233.35 174.55C235.43 174.44 238.47 172.43 238.88 170.29C239.076 169.431 239.116 168.543 239 167.67Z" fill="black"/>
<path d="M250.56 160.13C246.42 167.13 244.81 170.13 239.27 172C230.93 174.76 223.27 168.14 225.22 160.06C227 152.78 233.48 142.57 242.01 143.32C243.894 143.475 245.706 144.11 247.276 145.164C248.845 146.217 250.118 147.655 250.975 149.339C251.832 151.024 252.244 152.9 252.171 154.789C252.098 156.677 251.544 158.516 250.56 160.13Z" fill="#FFB573"/>
<path d="M251.58 166.41C256.037 166.41 259.65 161.234 259.65 154.85C259.65 148.466 256.037 143.29 251.58 143.29C247.123 143.29 243.51 148.466 243.51 154.85C243.51 161.234 247.123 166.41 251.58 166.41Z" fill="#263238"/>
<path d="M243.08 137.08C248.82 138.2 252.97 141.73 252.34 144.97C251.71 148.21 246.55 149.97 240.8 148.83C235.05 147.69 230.91 144.18 231.54 140.94C232.17 137.7 237.33 136 243.08 137.08Z" fill="#263238"/>
<path d="M213.57 230.94C213.57 230.94 205.07 277.94 203.39 302.85C201.64 328.77 227.63 371.23 227.63 371.23L237.32 365.93C237.52 366.08 220.95 314.01 223.7 301.21C229.54 274.01 237.82 233.1 237.82 233.1L213.57 230.94Z" fill="#263238"/>
<path d="M239.2 367.95L227.09 372.65L224.7 369.13L238.09 363.4L239.2 367.95Z" fill="#48B6B5"/>
<path opacity="0.2" d="M227.8 249.28C231.29 244.44 233.46 244.85 234.74 248.23C231.89 262.15 227.58 283.08 224.06 299.55C221.43 286.92 217 264.17 227.8 249.28Z" fill="black"/>
<path d="M300.89 330.26L296.34 337.07L278.91 329.02L283.47 322.21L300.89 330.26Z" fill="#FFB573"/>
<path d="M293.45 336.67L297.07 328.21C297.135 328.057 297.248 327.93 297.393 327.848C297.538 327.767 297.706 327.736 297.87 327.76L305.34 328.76C305.519 328.781 305.69 328.844 305.839 328.945C305.989 329.045 306.112 329.179 306.2 329.336C306.288 329.493 306.337 329.668 306.344 329.848C306.351 330.028 306.315 330.207 306.24 330.37C304.92 333.3 304.13 334.67 302.54 338.37C301.54 340.66 299 347.3 297.65 350.46C296.3 353.62 292.93 352.86 293.19 351.46C294.38 345.18 294.31 340.46 293.4 338.01C293.249 337.573 293.267 337.095 293.45 336.67Z" fill="#263238"/>
<g opacity="0.2">
<path opacity="0.2" d="M278.92 329.02L287.9 333.17L292.46 326.36L283.48 322.21L278.92 329.02Z" fill="black"/>
</g>
<path d="M222.73 231.76C222.73 231.76 222.58 276.58 230.73 300.48C234.25 310.82 284.68 332.65 284.68 332.65L291.82 324.19C292.53 324.33 262.55 301.14 253.62 294.54C251.62 293.07 249.95 291.27 249.72 288.82C247.3 262.08 246.97 233.92 246.97 233.92L222.73 231.76Z" fill="#263238"/>
<path d="M292.6 323.43L285.47 334.29L281.19 333.26L289.05 320.32L292.6 323.43Z" fill="#48B6B5"/>
<path d="M293.63 339.88C293.399 340.565 292.954 341.158 292.36 341.57C292.199 341.659 292.02 341.71 291.837 341.72C291.653 341.731 291.47 341.7 291.3 341.63C291.203 341.599 291.117 341.541 291.052 341.463C290.986 341.386 290.944 341.291 290.93 341.19C290.79 340.12 293.7 337.57 294.03 337.29C294.064 337.266 294.104 337.254 294.145 337.254C294.186 337.254 294.226 337.266 294.26 337.29C294.294 337.305 294.322 337.331 294.34 337.363C294.358 337.396 294.365 337.433 294.36 337.47C294.191 338.294 293.947 339.101 293.63 339.88ZM291.41 340.76C291.353 340.867 291.328 340.989 291.34 341.11C291.343 341.152 291.359 341.192 291.386 341.224C291.413 341.257 291.449 341.28 291.49 341.29C291.597 341.342 291.715 341.369 291.835 341.369C291.954 341.369 292.072 341.342 292.18 341.29C292.81 340.96 293.41 339.74 293.84 337.99C292.892 338.783 292.073 339.717 291.41 340.76Z" fill="#48B6B5"/>
<path d="M294.35 337.47L294.3 337.54C293.49 338.31 291.01 339.61 290.17 339.21C289.97 339.12 289.77 338.9 289.93 338.39C290.058 338.009 290.326 337.69 290.68 337.5C291.91 336.79 294.13 337.22 294.22 337.23C294.253 337.237 294.283 337.253 294.307 337.276C294.332 337.299 294.35 337.328 294.36 337.36C294.366 337.397 294.363 337.435 294.35 337.47ZM290.35 338.35C290.347 338.387 290.347 338.423 290.35 338.46C290.24 338.8 290.35 338.86 290.41 338.88C290.92 339.11 292.78 338.29 293.76 337.54C292.8 337.357 291.808 337.45 290.9 337.81C290.661 337.92 290.47 338.111 290.36 338.35H290.35Z" fill="#48B6B5"/>
<path d="M238.57 156.93C238.27 157.52 237.72 157.84 237.33 157.64C236.94 157.44 236.88 156.81 237.18 156.22C237.48 155.63 238.04 155.31 238.42 155.51C238.8 155.71 238.88 156.34 238.57 156.93Z" fill="#263238"/>
<path d="M231.93 153.53C231.63 154.11 231.07 154.43 230.69 154.23C230.31 154.03 230.24 153.4 230.54 152.81C230.84 152.22 231.4 151.91 231.78 152.11C232.16 152.31 232.23 152.94 231.93 153.53Z" fill="#263238"/>
<path d="M231.93 152.23L230.73 151.09C230.73 151.09 230.89 152.57 231.93 152.23Z" fill="#263238"/>
<path d="M232.93 154.85C231.727 155.921 230.38 156.82 228.93 157.52C229.117 157.889 229.384 158.212 229.711 158.466C230.037 158.721 230.416 158.899 230.82 158.99L232.93 154.85Z" fill="#ED893E"/>
<path d="M232.83 162.94C232.523 162.831 232.222 162.704 231.93 162.56C231.886 162.535 231.854 162.494 231.839 162.446C231.824 162.397 231.828 162.345 231.85 162.3C231.874 162.255 231.914 162.22 231.962 162.203C232.01 162.186 232.063 162.189 232.11 162.21C232.832 162.603 233.637 162.82 234.459 162.843C235.281 162.865 236.097 162.693 236.84 162.34C236.884 162.315 236.936 162.308 236.984 162.321C237.033 162.334 237.075 162.366 237.1 162.41C237.125 162.454 237.132 162.506 237.119 162.554C237.106 162.603 237.074 162.645 237.03 162.67C236.383 162.992 235.678 163.182 234.957 163.228C234.236 163.275 233.513 163.177 232.83 162.94Z" fill="#263238"/>
<path d="M249.12 167.75C247.956 168.8 246.427 169.353 244.86 169.29C242.78 169.18 242.4 167.15 243.54 165.54C244.54 164.09 246.87 162.4 248.69 163.3C249.083 163.506 249.419 163.806 249.667 164.174C249.914 164.543 250.067 164.967 250.109 165.409C250.152 165.85 250.084 166.296 249.911 166.704C249.738 167.113 249.467 167.473 249.12 167.75Z" fill="#FFB573"/>
<path d="M241.43 156.16C241.352 156.135 241.283 156.085 241.235 156.019C241.186 155.952 241.16 155.872 241.16 155.79C241.16 153.99 239.3 152.64 239.29 152.62C239.248 152.591 239.212 152.554 239.185 152.511C239.157 152.468 239.139 152.419 239.13 152.369C239.122 152.319 239.124 152.267 239.136 152.217C239.148 152.168 239.17 152.121 239.2 152.08C239.26 151.997 239.351 151.941 239.452 151.924C239.553 151.907 239.656 151.931 239.74 151.99C239.83 152.06 241.95 153.6 241.94 155.79C241.94 155.893 241.899 155.993 241.826 156.066C241.753 156.139 241.653 156.18 241.55 156.18L241.43 156.16Z" fill="#263238"/>
<path d="M231 148.65C230.918 148.627 230.847 148.578 230.796 148.51C230.745 148.442 230.717 148.36 230.717 148.275C230.717 148.19 230.745 148.108 230.796 148.04C230.847 147.973 230.918 147.923 231 147.9C231.598 147.751 232.224 147.75 232.823 147.896C233.423 148.042 233.977 148.332 234.44 148.74C234.477 148.775 234.506 148.816 234.526 148.863C234.547 148.909 234.557 148.959 234.557 149.01C234.557 149.061 234.547 149.111 234.526 149.157C234.506 149.204 234.477 149.245 234.44 149.28C234.404 149.317 234.362 149.347 234.314 149.367C234.267 149.387 234.216 149.398 234.165 149.398C234.113 149.398 234.063 149.387 234.015 149.367C233.968 149.347 233.925 149.317 233.89 149.28C233.518 148.965 233.076 148.744 232.601 148.634C232.126 148.525 231.632 148.53 231.16 148.65C231.107 148.66 231.053 148.66 231 148.65Z" fill="#263238"/>
<path d="M252.24 186.71C254.52 186.23 256.96 185.71 259.3 185.11C261.64 184.51 264.01 183.92 266.3 183.22C268.59 182.52 270.89 181.77 273.11 180.95C274.23 180.53 275.31 180.08 276.38 179.62C276.93 179.4 277.38 179.13 277.96 178.89L278.74 178.52L279.36 178.17C280.23 177.65 281.23 176.95 282.2 176.27C283.17 175.59 284.2 174.85 285.13 174.09C287.13 172.61 289.05 171.09 291.01 169.54C292.97 167.99 294.94 166.47 296.89 164.9L302.82 160.29L305.64 163.29C303.96 165.19 302.21 167 300.47 168.83C298.73 170.66 296.93 172.43 295.12 174.2C293.31 175.97 291.47 177.71 289.56 179.42C288.61 180.28 287.63 181.12 286.63 181.96C285.593 182.855 284.508 183.693 283.38 184.47L282.38 185.1L281.49 185.6C280.9 185.92 280.31 186.29 279.71 186.6L277.91 187.5L276.1 188.31C273.67 189.36 271.23 190.31 268.75 191.1C266.27 191.89 263.8 192.65 261.3 193.29C258.8 193.93 256.3 194.5 253.67 194.95L252.24 186.71Z" fill="#FFB573"/>
<path d="M247.68 207.51C256.68 204.02 260.93 201.14 260.93 201.14L260.27 179.51C260.27 179.51 250 181.42 244 186.18C240.28 189.11 244 208.94 247.68 207.51Z" fill="#48B6B5"/>
<g opacity="0.4">
<path opacity="0.4" d="M247.68 207.51C256.68 204.02 260.93 201.14 260.93 201.14L260.27 179.51C260.27 179.51 250 181.42 244 186.18C240.28 189.11 244 208.94 247.68 207.51Z" fill="white"/>
</g>
<path d="M229.17 190.63C229.17 190.63 233.09 190.88 233.17 195.92C238.4 193.92 246 188.08 247.04 183.56C247.079 183.394 247.084 183.222 247.055 183.054C247.025 182.886 246.962 182.726 246.868 182.584C246.774 182.442 246.653 182.32 246.51 182.226C246.368 182.133 246.208 182.069 246.04 182.04C245.6 181.97 245.19 181.92 244.9 181.89C244.63 181.864 244.36 181.927 244.13 182.07L237.84 185.91L229.17 190.63Z" fill="white"/>
<path d="M226.69 185L228.24 180.14L226.16 179.14C223.52 180.6 220.16 191.14 224.02 194.93C226.14 189.93 229.17 190.6 229.17 190.6L226.69 185Z" fill="white"/>
<path d="M243.07 181.86C238.109 181.051 233.096 180.603 228.07 180.52H227.07C225.67 182.69 224.94 186.52 228.13 191.33C228.13 191.33 241.13 187.42 245.07 182.16C244.39 182.05 243.73 182 243.07 181.86Z" fill="#FFB573"/>
<path d="M231.37 383.43C230.85 383.904 230.183 384.186 229.48 384.23C229.305 384.218 229.135 384.162 228.987 384.067C228.838 383.973 228.716 383.843 228.63 383.69C228.579 383.596 228.553 383.492 228.553 383.385C228.553 383.278 228.579 383.174 228.63 383.08C229.1 382.03 232.71 381.39 233.11 381.32C233.151 381.314 233.193 381.32 233.23 381.338C233.268 381.356 233.299 381.385 233.32 381.42C233.344 381.452 233.358 381.49 233.358 381.53C233.358 381.57 233.344 381.609 233.32 381.64C232.728 382.297 232.075 382.896 231.37 383.43ZM229.18 382.96C229.073 383.029 228.987 383.126 228.93 383.24C228.908 383.276 228.896 383.318 228.896 383.36C228.896 383.402 228.908 383.444 228.93 383.48C228.985 383.58 229.064 383.666 229.16 383.729C229.256 383.791 229.366 383.83 229.48 383.84C230.15 383.9 231.27 383.15 232.53 381.84C231.356 382.035 230.223 382.427 229.18 383V382.96Z" fill="#48B6B5"/>
<path d="M233.21 381.67C233.187 381.676 233.163 381.676 233.14 381.67C232.14 381.91 229.49 381.67 229.05 380.84C228.95 380.64 228.91 380.33 229.3 379.96C229.441 379.827 229.608 379.725 229.79 379.66C229.973 379.594 230.167 379.567 230.36 379.58C231.7 379.64 233.18 381.28 233.24 381.35C233.257 381.379 233.265 381.412 233.265 381.445C233.265 381.478 233.257 381.511 233.24 381.54C233.244 381.563 233.243 381.586 233.238 381.608C233.233 381.63 233.223 381.652 233.21 381.67ZM229.66 380.2L229.57 380.28C229.31 380.52 229.37 380.64 229.39 380.69C229.66 381.18 231.54 381.5 232.7 381.38C232.074 380.688 231.25 380.207 230.34 380C230.096 379.981 229.855 380.053 229.66 380.2Z" fill="#48B6B5"/>
<path d="M238.58 155.63L237.37 154.5C237.37 154.5 237.53 156 238.58 155.63Z" fill="#263238"/>
<path d="M247.36 232L247.94 235C248.04 235.24 247.74 235.45 247.36 235.42L213.27 232.42C212.97 232.42 212.74 232.22 212.74 232.04V229.04C212.74 228.84 213.01 228.69 213.34 228.72L246.88 231.72C246.977 231.724 247.071 231.752 247.154 231.801C247.238 231.85 247.308 231.918 247.36 232Z" fill="#FAFAFA"/>
<path d="M242.52 235.34L243.42 235.42C243.6 235.42 243.74 235.36 243.74 235.24L243.66 231.35C243.66 231.24 243.51 231.13 243.33 231.12L242.43 231.04C242.25 231.04 242.11 231.1 242.11 231.22L242.19 235.11C242.19 235.22 242.34 235.33 242.52 235.34Z" fill="#263238"/>
<path d="M215.77 233L216.67 233.08C216.85 233.08 216.99 233.01 216.99 232.9L216.91 229.01C216.91 228.89 216.76 228.79 216.58 228.77L215.68 228.69C215.5 228.69 215.36 228.76 215.36 228.87L215.44 232.76C215.44 232.83 215.59 232.94 215.77 233Z" fill="#263238"/>
<path d="M229.14 234.15L230.04 234.23C230.22 234.23 230.37 234.16 230.36 234.05L230.28 230.16C230.28 230.05 230.13 229.94 229.96 229.93L229.06 229.85C228.88 229.85 228.73 229.91 228.74 230.02L228.81 233.91C228.82 234 229 234.13 229.14 234.15Z" fill="#263238"/>
<path d="M301.85 161.73L301.76 152.89L308.18 158.19C308.18 158.19 307.18 163.35 303.96 164.38L301.85 161.73Z" fill="#FFB573"/>
<path d="M305.95 147.42L311.08 152.15L308.18 158.19L301.76 152.89L305.95 147.42Z" fill="#FFB573"/>
</svg>
